<svg version="1.2" xmlns="http://www.w3.org/2000/svg" viewBox="0 0 800 400" width="800" height="400"><defs><linearGradient id="a" gradientUnits="userSpaceOnUse" x1="174.8" y1="156" x2="375.7" y2="156"><stop offset="0" stop-color="#39add6"/><stop offset="1" stop-color="#1f73b8"/></linearGradient><linearGradient id="b" gradientUnits="userSpaceOnUse" x1="199.7" y1="248.2" x2="140.1" y2="248.2"><stop offset="0" stop-color="#f4e05b"/><stop offset="1" stop-color="#ffa34e"/></linearGradient></defs><path fill-rule="evenodd" d="M375.67 227.62v17.25c-13.79 0-26.06-6.65-33.77-16.91-7.73 10-19.82 16.46-33.41 16.46-13.69 0-25.87-6.55-33.59-16.68-7.72 10.13-19.9 16.68-33.59 16.68-13.69 0-25.87-6.55-33.59-16.68a42.35 42.35 0 0 1-3.96 4.5c-7.48 7.38-17.7 11.99-28.98 12.16v-17.25c8.54-.22 16.02-4.73 20.35-11.47 2.51-3.89 3.97-8.51 3.97-13.48 0-9.59 3.22-18.43 8.62-25.53 7.72-10.13 19.9-16.68 33.59-16.68 13.69 0 25.87 6.55 33.59 16.68 7.72-10.13 19.9-16.68 33.59-16.68 23.28 0 42.21 18.94 42.21 42.21 0 .15-.01.3-.01.45h.01c0 13.77 11.2 24.96 24.96 24.96zM266.28 202.2c0-13.77-11.2-24.96-24.96-24.96-13.77 0-24.96 11.2-24.96 24.96 0 13.77 11.2 24.96 24.96 24.96 13.76 0 24.96-11.2 24.96-24.96zm67.18 0c0-13.77-11.2-24.96-24.96-24.96-13.76 0-24.96 11.2-24.96 24.96 0 13.77 11.2 24.96 24.96 24.96 13.76 0 24.96-11.2 24.96-24.96z" fill="url(#a)"/><path d="M149.17 202.2c0 12.19 8.79 22.36 20.35 24.53v17.43c-21.11-2.3-37.6-20.24-37.6-41.96 0-23.28 18.94-42.21 42.21-42.21 11.54 0 22 4.66 29.63 12.18a48.087 48.087 0 0 0-8.63 16.56c-4.45-6.9-12.19-11.49-21-11.49-13.77 0-24.96 11.2-24.96 24.96z" fill="url(#b)"/><path fill-rule="evenodd" d="M471.41 171.01c8.14 8.08 12.27 17.99 12.27 29.46 0 11.48-4.13 21.39-12.28 29.47-8.07 8.07-17.98 12.17-29.45 12.17-11.47 0-21.39-4.1-29.46-12.18-8.08-8.08-12.18-17.99-12.18-29.46 0-11.47 4.1-21.38 12.18-29.46 8.07-8.14 17.99-12.27 29.46-12.27 11.47 0 21.38 4.13 29.46 12.27zm-45.35 49.11c4.48 5.34 9.66 7.92 15.89 7.92s11.45-2.58 15.96-7.9c4.6-5.44 6.84-11.87 6.84-19.66 0-7.8-2.24-14.26-6.86-19.77-4.49-5.23-9.71-7.79-15.95-7.79-6.23 0-11.42 2.55-15.87 7.81-4.67 5.5-6.94 11.96-6.94 19.75 0 7.78 2.27 14.21 6.92 19.64zm127.42-52.5c4.87 4.87 7.33 10.86 7.33 17.82 0 6.95-2.46 12.97-7.31 17.9-4.95 4.95-10.97 7.45-17.93 7.45h-21.69v29.9h-18.83V160.2h40.52c6.96 0 12.99 2.5 17.91 7.43zm-39.61 29.08h16.94c3.1 0 5.67-1.07 7.88-3.28s3.28-4.82 3.28-7.98c0-3.1-1.07-5.67-3.28-7.88s-4.79-3.28-7.88-3.28h-16.94v22.43zm143.24 31.83l-12.18 14.34-9.17-7.66c-6.59 4.09-13.95 6.16-21.91 6.16-11.47 0-21.39-4.1-29.46-12.18-8.08-8.08-12.18-17.99-12.18-29.46 0-11.47 4.1-21.38 12.18-29.46 8.07-8.14 17.99-12.27 29.46-12.27 11.47 0 21.39 4.13 29.47 12.28 8.13 8.06 12.26 17.98 12.26 29.45 0 8.04-2.14 15.48-6.37 22.15l7.91 6.66zm-59.16-9.16c4.48 5.34 9.66 7.92 15.89 7.92 3.43 0 6.59-.81 9.54-2.47l-16.4-13.74 12.2-14.35 15.84 13.3c1.09-3.25 1.64-6.69 1.64-10.29 0-7.8-2.24-14.26-6.86-19.77-4.49-5.23-9.71-7.79-15.95-7.79-6.23 0-11.42 2.55-15.87 7.81-4.67 5.5-6.94 11.96-6.94 19.75 0 7.78 2.26 14.21 6.92 19.64z" fill="#333"/></svg>